<?xml version="1.0" standalone="no"?>
<!DOCTYPE svg PUBLIC "-//W3C//DTD SVG 20010904//EN"
 "http://www.w3.org/TR/2001/REC-SVG-20010904/DTD/svg10.dtd">
<svg version="1.0" xmlns="http://www.w3.org/2000/svg"
 width="1085.000000pt" height="1450.000000pt" viewBox="0 0 1085.000000 1450.000000"
 preserveAspectRatio="xMidYMid meet">

<g transform="translate(0.000000,1450.000000) scale(0.100000,-0.100000)"
fill="#000000" stroke="none">
<path d="M306 14091 c-15 -17 -16 -275 -13 -3917 3 -2775 7 -3941 15 -4044 36
-463 70 -689 158 -1045 110 -446 296 -939 496 -1308 367 -681 900 -1308 1588
-1868 676 -551 1737 -1162 2709 -1560 79 -32 152 -59 162 -59 46 0 531 211
874 380 1540 759 2589 1613 3312 2695 360 539 620 1151 778 1829 71 307 110
570 137 921 15 207 23 7946 8 7975 -11 20 -34 20 -5109 20 -4956 0 -5098 -1
-5115 -19z m10084 -3869 c0 -3613 -3 -4021 -31 -4307 -89 -916 -426 -1837
-940 -2571 -612 -874 -1421 -1573 -2579 -2226 -387 -218 -939 -487 -1312 -638
l-106 -43 -129 52 c-652 269 -1445 689 -2016 1071 -855 570 -1486 1182 -1963
1906 -442 670 -732 1484 -834 2339 -32 271 -33 374 -37 4239 -2 2134 -2 3885
1 3893 5 11 854 13 4976 13 l4970 0 0 -3728z"/>
<path d="M3870 9651 l0 -3431 215 0 c118 0 215 -2 215 -5 0 -3 -25 -35 -55
-72 -30 -38 -80 -112 -112 -165 l-58 -97 -390 -1 c-214 -1 -610 -1 -879 -1
-269 1 -499 -2 -512 -5 -21 -5 -24 -12 -24 -55 l0 -49 876 0 c830 0 876 -1
869 -17 -19 -50 -64 -195 -75 -245 l-13 -58 -829 0 -828 0 0 -55 0 -55 818 0
817 0 0 -160 0 -160 -817 0 -818 0 0 -55 0 -55 826 -2 827 -3 32 -120 c18 -66
37 -133 44 -148 24 -61 91 -57 -859 -57 l-870 0 0 -55 0 -55 898 0 897 0 54
-95 c30 -52 83 -132 117 -178 l62 -82 -224 -3 -224 -2 0 -864 0 -864 108 45
c59 25 235 98 392 163 157 65 463 193 680 284 l394 165 456 -191 c947 -396
1070 -448 1095 -454 l25 -6 -2 858 -3 859 -217 3 c-197 2 -239 8 -209 26 20
13 121 156 170 241 l51 90 918 5 917 5 3 52 3 53 -897 0 c-850 0 -896 1 -889
18 17 39 75 245 75 266 0 12 5 27 12 34 9 9 213 12 856 12 l843 0 -3 53 -3 52
-840 3 -840 2 0 160 0 160 840 2 840 3 3 52 3 53 -852 2 -852 3 -23 90 c-12
50 -32 117 -43 149 -12 33 -21 63 -21 68 0 4 403 8 896 8 l895 0 -3 53 -3 52
-900 2 c-495 1 -910 2 -921 3 -16 0 -33 20 -67 79 -25 43 -76 118 -112 166
-36 48 -65 88 -65 91 0 2 95 4 212 4 l211 0 -7 3422 c-4 1883 -9 3424 -11
3426 -3 4 -20 -4 -405 -176 -274 -122 -622 -276 -930 -410 l-204 -89 -131 59
c-71 33 -335 150 -585 260 -250 110 -536 236 -635 280 -99 44 -186 82 -192 85
-10 4 -13 -685 -13 -3426z m530 3081 c223 -99 545 -241 716 -316 l312 -136
268 116 c453 197 1040 456 1103 488 14 7 36 17 49 20 l22 7 0 -3295 0 -3296
-206 0 -206 0 -77 62 c-373 301 -806 412 -1251 322 -229 -47 -482 -172 -669
-330 l-63 -54 -212 2 -211 3 -3 3299 c-2 2637 0 3297 10 3293 7 -2 195 -86
418 -185z m1305 -6116 c102 -23 219 -63 314 -107 96 -45 96 -46 -1 -98 l-64
-34 -275 37 c-150 20 -285 36 -298 36 -16 0 -50 26 -107 82 -46 45 -84 85 -84
89 0 23 408 19 515 -5z m-190 -251 c245 -31 420 -56 427 -63 4 -4 37 -92 74
-197 l67 -189 -50 -46 c-27 -25 -92 -84 -145 -133 l-95 -87 -313 39 c-172 22
-313 41 -315 43 -14 17 -155 298 -155 310 0 8 70 88 156 176 179 186 146 172
349 147z m-1160 -374 l37 -100 -92 -193 c-51 -106 -99 -210 -107 -230 -8 -21
-16 -38 -17 -38 0 0 -38 -6 -83 -14 -46 -7 -83 -10 -83 -7 0 3 11 51 24 107
42 172 110 324 216 482 34 51 63 92 64 92 2 0 20 -45 41 -99z m672 -143 l75
-146 -132 -254 c-73 -139 -138 -258 -144 -264 -8 -9 -347 -102 -390 -108 -11
-1 -196 302 -196 321 0 13 111 256 180 393 l38 75 113 34 c193 57 353 100 367
98 7 -1 47 -68 89 -149z m1278 -128 c208 -164 285 -233 289 -254 3 -12 10 -91
16 -176 l12 -155 -54 -50 c-156 -146 -290 -265 -296 -265 -4 0 -83 47 -177
103 l-170 102 -27 180 c-15 99 -34 226 -43 282 -9 57 -14 107 -10 113 4 6 68
67 142 135 l136 124 31 -21 c17 -12 85 -65 151 -118z m521 -226 c19 -85 26
-147 31 -279 3 -93 1 -180 -4 -192 -8 -21 -12 -18 -85 50 l-77 72 -15 164
c-16 161 -16 163 5 189 48 61 105 118 112 112 4 -3 19 -55 33 -116z m-1918
-455 c37 -33 142 -128 233 -210 l165 -150 -30 -185 c-22 -130 -36 -188 -46
-194 -8 -4 -53 -19 -100 -33 -47 -14 -154 -46 -239 -72 -103 -31 -160 -44
-172 -38 -9 4 -83 80 -164 168 l-146 160 7 125 c4 68 12 185 18 259 l11 135
30 8 c179 50 324 87 343 87 16 1 47 -20 90 -60z m1194 -201 c76 -44 138 -86
138 -94 0 -57 -56 -490 -66 -505 -2 -4 -95 -64 -206 -134 -181 -115 -204 -126
-222 -115 -12 7 -114 77 -227 157 l-206 144 18 112 c10 62 23 146 30 188 l12
76 121 66 c67 37 184 102 261 146 l139 80 35 -20 c20 -12 97 -57 173 -101z
m-1661 -490 c45 -51 118 -129 161 -174 l79 -81 9 -94 c5 -51 7 -95 5 -97 -6
-6 -141 93 -213 157 -80 70 -168 172 -238 277 -30 45 -54 84 -54 87 0 6 48 11
131 15 34 2 42 -4 120 -90z m1932 -174 c53 -4 97 -10 97 -15 0 -14 -170 -163
-248 -218 -101 -70 -295 -164 -406 -196 -49 -14 -91 -24 -93 -21 -4 4 53 165
65 182 4 5 30 24 57 41 28 16 126 78 220 137 116 73 176 105 190 102 11 -3 64
-8 118 -12z m-1920 -210 c132 -119 368 -247 555 -303 471 -140 965 -40 1354
274 l93 75 218 0 217 0 0 -735 0 -735 -32 14 c-173 73 -930 391 -1158 485 -63
27 -150 63 -193 81 -78 33 -80 33 -120 18 -23 -9 -348 -144 -722 -300 -374
-157 -688 -287 -697 -291 -17 -6 -18 33 -18 728 l0 735 226 0 226 0 51 -46z"/>
<path d="M5156 11758 c-18 -29 -639 -1086 -677 -1154 -16 -28 -29 -54 -29 -58
0 -3 98 -5 217 -4 l217 3 61 115 60 115 407 3 408 2 24 -38 c13 -21 42 -75 65
-120 l41 -82 220 0 221 0 -12 23 c-47 87 -213 373 -572 982 l-135 230 -251 3
-250 2 -15 -22z m397 -468 c70 -126 127 -234 127 -240 0 -12 -516 -15 -523 -2
-3 4 12 36 32 72 21 36 80 140 131 233 52 92 96 167 99 167 3 0 63 -103 134
-230z"/>
<path d="M4460 9636 l0 -484 70 -65 c92 -83 195 -142 297 -167 77 -20 104 -21
624 -18 l544 3 82 33 c85 34 172 92 255 170 l48 45 0 483 0 484 -215 0 -215 0
-2 -472 -3 -473 -522 -3 -523 -2 -2 472 -3 473 -217 3 -218 2 0 -484z"/>
<path d="M4479 8403 c0 -5 0 -285 0 -623 l0 -615 218 0 218 0 3 243 2 242 720
0 720 0 0 125 0 125 -720 0 -720 0 0 125 0 125 730 0 731 0 -3 128 -3 127
-947 3 c-522 1 -948 -1 -949 -5z"/>
<path d="M2762 11824 c-52 -59 -105 -166 -128 -254 -32 -128 3 -265 87 -332
l39 -31 0 -246 0 -246 -20 33 c-53 87 -174 167 -288 191 -57 12 -183 15 -219
5 -28 -8 -30 -39 -8 -132 31 -129 122 -254 220 -302 90 -44 208 -44 282 0 l33
19 0 -292 -1 -292 -21 30 c-36 49 -103 109 -156 138 -87 47 -243 70 -341 51
l-32 -7 6 -51 c17 -132 58 -220 141 -302 76 -76 142 -104 243 -104 51 0 79 6
114 24 l47 23 -1 -316 c0 -297 -1 -314 -17 -291 -59 90 -180 167 -300 190 -69
14 -207 9 -224 -8 -15 -15 6 -127 39 -209 34 -85 113 -172 195 -213 81 -40
189 -43 261 -6 l47 23 0 -330 0 -330 -54 59 c-92 102 -218 154 -371 154 -136
0 -136 0 -111 -122 20 -91 58 -168 117 -233 67 -72 138 -107 234 -113 63 -4
80 -1 129 21 l56 26 0 -325 0 -325 -57 61 c-101 110 -201 152 -365 154 -72 1
-111 -3 -119 -11 -18 -18 12 -161 51 -239 40 -82 138 -175 212 -200 74 -26
171 -24 225 4 23 12 45 22 48 22 3 0 5 -205 5 -455 l0 -455 45 0 45 0 0 459 0
460 43 -24 c88 -49 208 -38 310 27 93 60 166 181 189 315 16 97 14 98 -115 97
-178 -2 -305 -62 -398 -188 l-29 -39 0 332 c0 183 3 331 8 329 88 -45 107 -50
178 -46 94 6 164 40 233 113 66 69 110 163 124 261 13 93 12 94 -100 94 -186
0 -328 -65 -421 -195 l-21 -30 -1 336 0 336 47 -23 c67 -34 177 -34 252 1 141
66 229 198 247 370 l6 62 -32 7 c-180 36 -415 -56 -500 -197 l-20 -32 0 322 0
322 51 -26 c46 -23 60 -25 133 -21 62 4 93 11 131 30 64 33 145 118 179 185
28 57 56 159 56 210 0 29 -4 33 -36 39 -63 12 -205 -2 -269 -26 -56 -21 -185
-103 -185 -118 -1 -4 -14 -23 -30 -42 l-30 -34 0 292 0 291 46 -24 c71 -38
177 -36 262 5 123 58 211 183 234 331 16 109 16 109 -95 109 -103 0 -182 -17
-258 -56 -57 -29 -142 -103 -170 -149 -19 -30 -19 -27 -19 214 l0 244 39 34
c80 68 115 191 92 315 -16 81 -79 210 -134 272 l-43 49 -42 -49z m104 -169
c39 -82 58 -170 49 -229 -9 -52 -46 -118 -80 -140 -25 -16 -28 -16 -60 4 -37
23 -70 82 -80 146 -11 71 31 207 93 303 15 22 16 22 30 5 8 -11 29 -50 48 -89z
m-428 -785 c111 -26 219 -109 266 -205 31 -63 28 -72 -28 -99 -52 -25 -133
-21 -193 9 -92 46 -172 157 -189 263 l-7 42 54 0 c30 0 73 -5 97 -10z m879
-29 c-14 -105 -107 -231 -199 -271 -73 -31 -167 -26 -205 12 l-26 27 17 45
c48 125 206 224 360 225 l59 1 -6 -39z m-885 -752 c116 -24 228 -111 278 -215
21 -43 21 -46 5 -64 -44 -48 -147 -52 -233 -9 -92 45 -168 152 -187 262 l-7
37 45 0 c25 0 70 -5 99 -11z m884 -31 c-25 -154 -161 -288 -293 -288 -51 0
-123 26 -137 49 -3 5 8 36 25 69 64 129 199 209 358 211 l54 1 -7 -42z m-892
-798 c80 -13 152 -50 209 -105 48 -48 104 -146 92 -165 -15 -24 -86 -50 -137
-50 -124 1 -237 102 -284 253 -16 51 -16 60 -4 68 19 11 51 11 124 -1z m890
-31 c-2 -89 -98 -223 -189 -265 -71 -34 -157 -33 -207 1 -34 23 -37 28 -27 53
58 153 218 256 389 248 33 -1 35 -3 34 -37z m-811 -859 c75 -28 167 -113 203
-186 15 -30 25 -56 23 -58 -39 -36 -88 -56 -134 -56 -69 0 -162 46 -210 104
-40 49 -80 134 -90 190 l-6 39 78 -6 c43 -3 104 -15 136 -27z m817 12 c0 -11
-9 -44 -19 -74 -45 -132 -137 -220 -245 -234 -61 -9 -110 2 -145 32 l-29 24
16 42 c22 56 112 151 168 179 65 31 130 47 197 48 49 1 57 -2 57 -17z m-835
-859 c98 -34 173 -100 220 -193 21 -42 24 -54 14 -66 -40 -49 -143 -61 -220
-27 -103 46 -175 143 -203 275 -5 22 -2 27 16 31 34 7 128 -4 173 -20z m828
-18 c-4 -55 -54 -153 -104 -203 -95 -94 -228 -115 -304 -49 l-25 22 24 52 c33
70 94 133 159 166 60 31 165 57 217 54 34 -2 35 -3 33 -42z"/>
<path d="M7981 11823 c-52 -61 -106 -169 -127 -253 -33 -132 4 -271 88 -329
l37 -26 3 -243 c2 -133 1 -242 -2 -241 -3 0 -22 22 -43 50 -42 56 -119 110
-198 141 -57 22 -224 37 -273 24 -24 -6 -26 -11 -26 -60 0 -109 58 -234 145
-315 70 -64 118 -84 215 -89 75 -3 91 -1 132 21 l47 24 3 -289 c2 -158 0 -288
-3 -288 -3 0 -12 12 -20 26 -20 38 -105 112 -161 140 -65 33 -159 54 -243 54
-108 0 -115 -4 -115 -59 0 -56 20 -135 51 -198 35 -73 132 -165 202 -191 81
-31 178 -30 240 2 l46 23 3 -314 c2 -172 1 -313 -2 -312 -3 0 -22 22 -43 50
-90 118 -271 186 -441 165 l-56 -7 0 -47 c1 -154 100 -316 234 -382 53 -26 75
-31 138 -32 67 0 99 8 161 40 4 2 7 -146 7 -330 -1 -247 -3 -328 -12 -313 -18
34 -91 105 -138 135 -72 45 -168 70 -274 70 -50 0 -97 -4 -105 -9 -11 -7 -13
-24 -8 -73 7 -81 37 -160 85 -229 96 -138 268 -196 400 -134 l52 24 -1 -327
c0 -311 -1 -326 -17 -302 -50 73 -123 130 -209 163 -65 25 -171 39 -245 32
l-68 -7 0 -47 c0 -106 61 -241 142 -317 71 -66 146 -98 233 -98 64 0 89 7 158
42 4 2 7 -201 7 -452 l0 -456 45 0 45 0 0 460 0 459 52 -27 c144 -75 346 7
436 176 36 68 62 158 62 218 l0 42 -64 7 c-161 17 -345 -52 -433 -164 -20 -25
-41 -50 -45 -56 -4 -5 -8 142 -8 326 l0 336 56 -29 c171 -86 388 29 465 247
28 79 37 174 18 186 -8 5 -55 9 -105 9 -157 0 -275 -49 -373 -156 l-61 -67 0
337 c0 312 4 360 26 325 26 -43 175 -53 268 -18 129 48 240 209 253 368 l6 68
-33 6 c-150 31 -349 -30 -447 -137 -26 -28 -53 -61 -60 -71 -9 -16 -12 49 -12
303 -1 178 2 322 7 320 88 -46 107 -50 181 -46 168 10 295 128 347 321 8 29
14 71 14 93 0 50 -9 54 -120 54 -150 0 -274 -53 -371 -158 l-59 -65 0 292 c0
160 1 291 3 291 1 0 24 -11 51 -25 38 -19 65 -25 117 -25 159 0 284 98 351
272 25 66 39 180 24 190 -20 13 -190 8 -249 -7 -32 -8 -80 -26 -108 -40 -50
-26 -140 -107 -172 -155 -15 -24 -16 -11 -16 221 l-1 246 39 31 c116 93 130
276 37 467 -35 70 -102 165 -117 165 -4 0 -26 -21 -48 -47z m84 -117 c61 -105
85 -226 61 -310 -15 -52 -71 -126 -96 -126 -18 0 -72 54 -92 94 -28 55 -27
150 1 231 25 70 81 166 93 159 4 -3 19 -24 33 -48z m-391 -841 c73 -19 129
-52 183 -107 45 -46 98 -142 88 -158 -15 -24 -86 -50 -138 -50 -100 0 -195 68
-252 180 -26 51 -47 135 -37 145 11 10 99 5 156 -10z m868 10 c9 -9 -11 -85
-36 -141 -66 -145 -226 -223 -342 -168 -60 29 -62 38 -25 110 50 96 129 158
244 189 52 14 149 20 159 10z m-818 -806 c74 -27 166 -112 202 -185 30 -62 26
-75 -34 -100 -83 -34 -212 3 -281 81 -52 60 -112 210 -92 231 12 12 149 -6
205 -27z m818 26 c10 -10 -11 -85 -39 -142 -71 -144 -232 -222 -342 -165 -53
26 -58 42 -30 98 45 94 139 168 252 199 52 14 149 20 159 10z m-800 -867 c79
-36 158 -113 189 -184 17 -37 18 -48 8 -60 -39 -47 -151 -59 -226 -24 -53 23
-125 94 -154 152 -25 49 -50 143 -40 153 15 17 158 -7 223 -37z m800 37 c9
-10 -11 -84 -39 -143 -52 -111 -154 -182 -260 -182 -60 0 -118 25 -129 55 -3
8 4 35 15 59 64 131 198 210 367 215 22 0 43 -1 46 -4z m-850 -885 c114 -35
195 -105 240 -207 20 -45 20 -47 2 -61 -140 -107 -353 7 -407 218 -8 30 -13
58 -10 63 8 14 112 7 175 -13z m851 13 c8 -14 -23 -117 -49 -160 -90 -154
-280 -213 -367 -115 -18 20 -18 22 14 82 50 94 135 159 244 186 56 14 152 18
158 7z m-17 -849 c20 -5 21 -9 12 -47 -46 -208 -242 -338 -385 -257 -24 13
-43 31 -43 40 0 33 75 141 125 180 81 62 221 103 291 84z m-784 -36 c75 -35
151 -107 185 -176 l27 -55 -27 -23 c-81 -69 -227 -40 -317 63 -40 45 -80 130
-88 185 l-5 41 84 -5 c63 -3 99 -11 141 -30z"/>
</g>
</svg>
